<mxfile host="app.diagrams.net" agent="Mozilla/5.0 (Windows NT 10.0; Win64; x64) AppleWebKit/537.36 (KHTML, like Gecko) Chrome/136.0.0.0 Safari/537.36" version="27.0.9">
  <diagram name="Página-1" id="W4rULqUDbjKW4zX-dyBw">
    <mxGraphModel grid="1" page="1" gridSize="10" guides="1" tooltips="1" connect="1" arrows="1" fold="1" pageScale="1" pageWidth="1654" pageHeight="2336" math="0" shadow="0">
      <root>
        <mxCell id="0" />
        <mxCell id="1" parent="0" />
        <mxCell id="Zg2RwI3bCPtanBzoQ3vK-2" style="edgeStyle=orthogonalEdgeStyle;rounded=0;orthogonalLoop=1;jettySize=auto;html=1;endArrow=open;endFill=0;endSize=8;" edge="1" parent="1" source="ywd59SVErPVPnXJvX7KZ-2" target="Zg2RwI3bCPtanBzoQ3vK-1">
          <mxGeometry relative="1" as="geometry" />
        </mxCell>
        <mxCell id="ywd59SVErPVPnXJvX7KZ-2" value="" style="ellipse;fillColor=strokeColor;html=1;" vertex="1" parent="1">
          <mxGeometry x="30" y="241.87" width="30" height="30" as="geometry" />
        </mxCell>
        <mxCell id="ywd59SVErPVPnXJvX7KZ-16" value="" style="ellipse;html=1;shape=endState;fillColor=strokeColor;" vertex="1" parent="1">
          <mxGeometry x="1150" y="450" width="30" height="30" as="geometry" />
        </mxCell>
        <mxCell id="Zg2RwI3bCPtanBzoQ3vK-49" style="edgeStyle=orthogonalEdgeStyle;shape=connector;rounded=0;orthogonalLoop=1;jettySize=auto;html=1;strokeColor=default;align=center;verticalAlign=middle;fontFamily=Helvetica;fontSize=11;fontColor=default;labelBackgroundColor=default;endArrow=open;endFill=0;endSize=8;" edge="1" parent="1" source="Zg2RwI3bCPtanBzoQ3vK-1" target="Zg2RwI3bCPtanBzoQ3vK-33">
          <mxGeometry relative="1" as="geometry" />
        </mxCell>
        <mxCell id="Zg2RwI3bCPtanBzoQ3vK-1" value="Usuario accede a la sección acciones de mejora" style="rounded=1;whiteSpace=wrap;html=1;" vertex="1" parent="1">
          <mxGeometry x="140" y="229.37" width="140" height="55" as="geometry" />
        </mxCell>
        <mxCell id="4miW7F7eIJiw02eHJMOR-3" style="edgeStyle=orthogonalEdgeStyle;rounded=0;orthogonalLoop=1;jettySize=auto;html=1;entryX=1;entryY=0.5;entryDx=0;entryDy=0;" edge="1" parent="1" source="Zg2RwI3bCPtanBzoQ3vK-26" target="4miW7F7eIJiw02eHJMOR-1">
          <mxGeometry relative="1" as="geometry" />
        </mxCell>
        <mxCell id="Zg2RwI3bCPtanBzoQ3vK-26" value="Acción de mejora eliminada" style="rounded=1;whiteSpace=wrap;html=1;" vertex="1" parent="1">
          <mxGeometry x="540" y="23.120000000000005" width="120" height="47.5" as="geometry" />
        </mxCell>
        <mxCell id="Zg2RwI3bCPtanBzoQ3vK-46" style="edgeStyle=orthogonalEdgeStyle;shape=connector;rounded=0;orthogonalLoop=1;jettySize=auto;html=1;strokeColor=default;align=center;verticalAlign=middle;fontFamily=Helvetica;fontSize=11;fontColor=default;labelBackgroundColor=default;endArrow=open;endFill=0;endSize=8;" edge="1" parent="1" source="Zg2RwI3bCPtanBzoQ3vK-33" target="Zg2RwI3bCPtanBzoQ3vK-37">
          <mxGeometry relative="1" as="geometry" />
        </mxCell>
        <mxCell id="Zg2RwI3bCPtanBzoQ3vK-33" value="seleccione acción de mejora que deseas gestionar" style="rounded=1;whiteSpace=wrap;html=1;" vertex="1" parent="1">
          <mxGeometry x="360" y="233.12" width="120" height="47.5" as="geometry" />
        </mxCell>
        <mxCell id="Zg2RwI3bCPtanBzoQ3vK-40" style="edgeStyle=orthogonalEdgeStyle;shape=connector;rounded=0;orthogonalLoop=1;jettySize=auto;html=1;strokeColor=default;align=center;verticalAlign=middle;fontFamily=Helvetica;fontSize=11;fontColor=default;labelBackgroundColor=default;endArrow=open;endFill=0;endSize=8;" edge="1" parent="1" source="Zg2RwI3bCPtanBzoQ3vK-37" target="Zg2RwI3bCPtanBzoQ3vK-39">
          <mxGeometry relative="1" as="geometry" />
        </mxCell>
        <mxCell id="Zg2RwI3bCPtanBzoQ3vK-37" value="¿Se ha seleccionado alguna acción de mejora?" style="rounded=1;whiteSpace=wrap;html=1;" vertex="1" parent="1">
          <mxGeometry x="560" y="233.12" width="120" height="47.5" as="geometry" />
        </mxCell>
        <mxCell id="Zg2RwI3bCPtanBzoQ3vK-45" style="edgeStyle=orthogonalEdgeStyle;shape=connector;rounded=0;orthogonalLoop=1;jettySize=auto;html=1;entryX=1;entryY=0.5;entryDx=0;entryDy=0;strokeColor=default;align=center;verticalAlign=middle;fontFamily=Helvetica;fontSize=11;fontColor=default;labelBackgroundColor=default;endArrow=open;endFill=0;endSize=8;" edge="1" parent="1" source="Zg2RwI3bCPtanBzoQ3vK-39" target="Zg2RwI3bCPtanBzoQ3vK-41">
          <mxGeometry relative="1" as="geometry">
            <Array as="points">
              <mxPoint x="775" y="366.87" />
            </Array>
          </mxGeometry>
        </mxCell>
        <mxCell id="Zg2RwI3bCPtanBzoQ3vK-48" style="edgeStyle=orthogonalEdgeStyle;shape=connector;rounded=0;orthogonalLoop=1;jettySize=auto;html=1;entryX=0.5;entryY=1;entryDx=0;entryDy=0;strokeColor=default;align=center;verticalAlign=middle;fontFamily=Helvetica;fontSize=11;fontColor=default;labelBackgroundColor=default;endArrow=open;endFill=0;endSize=8;" edge="1" parent="1" source="Zg2RwI3bCPtanBzoQ3vK-39" target="Zg2RwI3bCPtanBzoQ3vK-47">
          <mxGeometry relative="1" as="geometry" />
        </mxCell>
        <mxCell id="Zg2RwI3bCPtanBzoQ3vK-39" value="" style="rhombus;whiteSpace=wrap;html=1;" vertex="1" parent="1">
          <mxGeometry x="750" y="236.87" width="50" height="40" as="geometry" />
        </mxCell>
        <mxCell id="Zg2RwI3bCPtanBzoQ3vK-44" style="edgeStyle=orthogonalEdgeStyle;shape=connector;rounded=0;orthogonalLoop=1;jettySize=auto;html=1;strokeColor=default;align=center;verticalAlign=middle;fontFamily=Helvetica;fontSize=11;fontColor=default;labelBackgroundColor=default;endArrow=open;endFill=0;endSize=8;" edge="1" parent="1" source="Zg2RwI3bCPtanBzoQ3vK-41" target="Zg2RwI3bCPtanBzoQ3vK-33">
          <mxGeometry relative="1" as="geometry" />
        </mxCell>
        <mxCell id="Zg2RwI3bCPtanBzoQ3vK-41" value="Error" style="rounded=1;whiteSpace=wrap;html=1;" vertex="1" parent="1">
          <mxGeometry x="550" y="346.87" width="70" height="40" as="geometry" />
        </mxCell>
        <mxCell id="Zg2RwI3bCPtanBzoQ3vK-43" value="No" style="text;html=1;align=center;verticalAlign=middle;resizable=0;points=[];autosize=1;strokeColor=none;fillColor=none;fontFamily=Helvetica;fontSize=11;fontColor=default;labelBackgroundColor=default;" vertex="1" parent="1">
          <mxGeometry x="770" y="271.87" width="40" height="30" as="geometry" />
        </mxCell>
        <mxCell id="Zg2RwI3bCPtanBzoQ3vK-53" style="edgeStyle=orthogonalEdgeStyle;shape=connector;rounded=0;orthogonalLoop=1;jettySize=auto;html=1;strokeColor=default;align=center;verticalAlign=middle;fontFamily=Helvetica;fontSize=11;fontColor=default;labelBackgroundColor=default;endArrow=open;endFill=0;endSize=8;" edge="1" parent="1" source="Zg2RwI3bCPtanBzoQ3vK-47" target="Zg2RwI3bCPtanBzoQ3vK-52">
          <mxGeometry relative="1" as="geometry" />
        </mxCell>
        <mxCell id="Zg2RwI3bCPtanBzoQ3vK-47" value="¿Qué deseas hacer?" style="rounded=1;whiteSpace=wrap;html=1;" vertex="1" parent="1">
          <mxGeometry x="715" y="116.87" width="120" height="47.5" as="geometry" />
        </mxCell>
        <mxCell id="Zg2RwI3bCPtanBzoQ3vK-54" style="edgeStyle=orthogonalEdgeStyle;shape=connector;rounded=0;orthogonalLoop=1;jettySize=auto;html=1;entryX=1;entryY=0.5;entryDx=0;entryDy=0;strokeColor=default;align=center;verticalAlign=middle;fontFamily=Helvetica;fontSize=11;fontColor=default;labelBackgroundColor=default;endArrow=open;endFill=0;endSize=8;" edge="1" parent="1" source="Zg2RwI3bCPtanBzoQ3vK-52" target="Zg2RwI3bCPtanBzoQ3vK-26">
          <mxGeometry relative="1" as="geometry" />
        </mxCell>
        <mxCell id="Zg2RwI3bCPtanBzoQ3vK-60" style="edgeStyle=orthogonalEdgeStyle;shape=connector;rounded=0;orthogonalLoop=1;jettySize=auto;html=1;entryX=0;entryY=0.5;entryDx=0;entryDy=0;strokeColor=default;align=center;verticalAlign=middle;fontFamily=Helvetica;fontSize=11;fontColor=default;labelBackgroundColor=default;endArrow=open;endFill=0;endSize=8;" edge="1" parent="1" source="Zg2RwI3bCPtanBzoQ3vK-52" target="Zg2RwI3bCPtanBzoQ3vK-58">
          <mxGeometry relative="1" as="geometry" />
        </mxCell>
        <mxCell id="Zg2RwI3bCPtanBzoQ3vK-61" value="Editar" style="edgeLabel;html=1;align=center;verticalAlign=middle;resizable=0;points=[];fontFamily=Helvetica;fontSize=11;fontColor=default;labelBackgroundColor=default;" connectable="0" vertex="1" parent="Zg2RwI3bCPtanBzoQ3vK-60">
          <mxGeometry x="-0.4813" y="11" relative="1" as="geometry">
            <mxPoint x="-11" y="2" as="offset" />
          </mxGeometry>
        </mxCell>
        <mxCell id="Zg2RwI3bCPtanBzoQ3vK-52" value="" style="rhombus;whiteSpace=wrap;html=1;" vertex="1" parent="1">
          <mxGeometry x="750" y="26.870000000000005" width="50" height="40" as="geometry" />
        </mxCell>
        <mxCell id="Zg2RwI3bCPtanBzoQ3vK-55" value="" style="ellipse;html=1;shape=endState;fillColor=strokeColor;" vertex="1" parent="1">
          <mxGeometry x="300" y="31.870000000000005" width="30" height="30" as="geometry" />
        </mxCell>
        <mxCell id="Zg2RwI3bCPtanBzoQ3vK-57" value="Eliminar" style="text;html=1;align=center;verticalAlign=middle;resizable=0;points=[];autosize=1;strokeColor=none;fillColor=none;fontFamily=Helvetica;fontSize=11;fontColor=default;labelBackgroundColor=default;" vertex="1" parent="1">
          <mxGeometry x="700" y="23.120000000000005" width="60" height="30" as="geometry" />
        </mxCell>
        <mxCell id="Zg2RwI3bCPtanBzoQ3vK-64" style="edgeStyle=orthogonalEdgeStyle;shape=connector;rounded=0;orthogonalLoop=1;jettySize=auto;html=1;entryX=0;entryY=0.5;entryDx=0;entryDy=0;strokeColor=default;align=center;verticalAlign=middle;fontFamily=Helvetica;fontSize=11;fontColor=default;labelBackgroundColor=default;endArrow=open;endFill=0;endSize=8;" edge="1" parent="1" source="Zg2RwI3bCPtanBzoQ3vK-58" target="Zg2RwI3bCPtanBzoQ3vK-63">
          <mxGeometry relative="1" as="geometry" />
        </mxCell>
        <mxCell id="Zg2RwI3bCPtanBzoQ3vK-58" value="Complete los datos de la acción de mejora" style="rounded=1;whiteSpace=wrap;html=1;" vertex="1" parent="1">
          <mxGeometry x="890" y="20" width="130" height="53.75" as="geometry" />
        </mxCell>
        <mxCell id="Zg2RwI3bCPtanBzoQ3vK-59" value="Si" style="text;html=1;align=center;verticalAlign=middle;resizable=0;points=[];autosize=1;strokeColor=none;fillColor=none;fontFamily=Helvetica;fontSize=11;fontColor=default;labelBackgroundColor=default;" vertex="1" parent="1">
          <mxGeometry x="775" y="214.87" width="30" height="30" as="geometry" />
        </mxCell>
        <mxCell id="Zg2RwI3bCPtanBzoQ3vK-67" style="edgeStyle=orthogonalEdgeStyle;shape=connector;rounded=0;orthogonalLoop=1;jettySize=auto;html=1;strokeColor=default;align=center;verticalAlign=middle;fontFamily=Helvetica;fontSize=11;fontColor=default;labelBackgroundColor=default;endArrow=open;endFill=0;endSize=8;" edge="1" parent="1" source="Zg2RwI3bCPtanBzoQ3vK-62" target="Zg2RwI3bCPtanBzoQ3vK-66">
          <mxGeometry relative="1" as="geometry" />
        </mxCell>
        <mxCell id="Zg2RwI3bCPtanBzoQ3vK-72" style="edgeStyle=orthogonalEdgeStyle;shape=connector;rounded=0;orthogonalLoop=1;jettySize=auto;html=1;entryX=0.5;entryY=0;entryDx=0;entryDy=0;strokeColor=default;align=center;verticalAlign=middle;fontFamily=Helvetica;fontSize=11;fontColor=default;labelBackgroundColor=default;endArrow=open;endFill=0;endSize=8;" edge="1" parent="1" source="Zg2RwI3bCPtanBzoQ3vK-62" target="Zg2RwI3bCPtanBzoQ3vK-70">
          <mxGeometry relative="1" as="geometry" />
        </mxCell>
        <mxCell id="Zg2RwI3bCPtanBzoQ3vK-62" value="" style="rhombus;whiteSpace=wrap;html=1;" vertex="1" parent="1">
          <mxGeometry x="1140" y="146.87" width="50" height="40" as="geometry" />
        </mxCell>
        <mxCell id="Zg2RwI3bCPtanBzoQ3vK-65" style="edgeStyle=orthogonalEdgeStyle;shape=connector;rounded=0;orthogonalLoop=1;jettySize=auto;html=1;entryX=0.5;entryY=0;entryDx=0;entryDy=0;strokeColor=default;align=center;verticalAlign=middle;fontFamily=Helvetica;fontSize=11;fontColor=default;labelBackgroundColor=default;endArrow=open;endFill=0;endSize=8;" edge="1" parent="1" source="Zg2RwI3bCPtanBzoQ3vK-63" target="Zg2RwI3bCPtanBzoQ3vK-62">
          <mxGeometry relative="1" as="geometry" />
        </mxCell>
        <mxCell id="Zg2RwI3bCPtanBzoQ3vK-63" value="¿Todos los campos completados?" style="rounded=1;whiteSpace=wrap;html=1;" vertex="1" parent="1">
          <mxGeometry x="1100" y="20" width="130" height="53.75" as="geometry" />
        </mxCell>
        <mxCell id="Zg2RwI3bCPtanBzoQ3vK-68" style="edgeStyle=orthogonalEdgeStyle;shape=connector;rounded=0;orthogonalLoop=1;jettySize=auto;html=1;entryX=0.5;entryY=1;entryDx=0;entryDy=0;strokeColor=default;align=center;verticalAlign=middle;fontFamily=Helvetica;fontSize=11;fontColor=default;labelBackgroundColor=default;endArrow=open;endFill=0;endSize=8;" edge="1" parent="1" source="Zg2RwI3bCPtanBzoQ3vK-66" target="Zg2RwI3bCPtanBzoQ3vK-58">
          <mxGeometry relative="1" as="geometry">
            <Array as="points">
              <mxPoint x="955" y="166.87" />
            </Array>
          </mxGeometry>
        </mxCell>
        <mxCell id="Zg2RwI3bCPtanBzoQ3vK-66" value="Error" style="rounded=1;whiteSpace=wrap;html=1;" vertex="1" parent="1">
          <mxGeometry x="1010" y="146.87" width="70" height="40" as="geometry" />
        </mxCell>
        <mxCell id="Zg2RwI3bCPtanBzoQ3vK-69" value="No" style="text;html=1;align=center;verticalAlign=middle;resizable=0;points=[];autosize=1;strokeColor=none;fillColor=none;fontFamily=Helvetica;fontSize=11;fontColor=default;labelBackgroundColor=default;" vertex="1" parent="1">
          <mxGeometry x="1110" y="134.37" width="40" height="30" as="geometry" />
        </mxCell>
        <mxCell id="4miW7F7eIJiw02eHJMOR-5" style="edgeStyle=orthogonalEdgeStyle;rounded=0;orthogonalLoop=1;jettySize=auto;html=1;entryX=0.5;entryY=0;entryDx=0;entryDy=0;" edge="1" parent="1" source="Zg2RwI3bCPtanBzoQ3vK-70" target="4miW7F7eIJiw02eHJMOR-4">
          <mxGeometry relative="1" as="geometry" />
        </mxCell>
        <mxCell id="Zg2RwI3bCPtanBzoQ3vK-70" value="Acción de mejora modificada" style="rounded=1;whiteSpace=wrap;html=1;" vertex="1" parent="1">
          <mxGeometry x="1110" y="244.87" width="110" height="52" as="geometry" />
        </mxCell>
        <mxCell id="Zg2RwI3bCPtanBzoQ3vK-71" style="edgeStyle=orthogonalEdgeStyle;shape=connector;rounded=0;orthogonalLoop=1;jettySize=auto;html=1;exitX=0.5;exitY=1;exitDx=0;exitDy=0;strokeColor=default;align=center;verticalAlign=middle;fontFamily=Helvetica;fontSize=11;fontColor=default;labelBackgroundColor=default;endArrow=open;endFill=0;endSize=8;" edge="1" parent="1" source="Zg2RwI3bCPtanBzoQ3vK-70" target="Zg2RwI3bCPtanBzoQ3vK-70">
          <mxGeometry relative="1" as="geometry" />
        </mxCell>
        <mxCell id="4miW7F7eIJiw02eHJMOR-2" style="edgeStyle=orthogonalEdgeStyle;rounded=0;orthogonalLoop=1;jettySize=auto;html=1;entryX=1;entryY=0.5;entryDx=0;entryDy=0;" edge="1" parent="1" source="4miW7F7eIJiw02eHJMOR-1" target="Zg2RwI3bCPtanBzoQ3vK-55">
          <mxGeometry relative="1" as="geometry" />
        </mxCell>
        <mxCell id="4miW7F7eIJiw02eHJMOR-1" value="Tabla actualizada" style="rounded=1;whiteSpace=wrap;html=1;" vertex="1" parent="1">
          <mxGeometry x="390" y="25" width="100" height="43.75" as="geometry" />
        </mxCell>
        <mxCell id="4miW7F7eIJiw02eHJMOR-6" style="edgeStyle=orthogonalEdgeStyle;rounded=0;orthogonalLoop=1;jettySize=auto;html=1;" edge="1" parent="1" source="4miW7F7eIJiw02eHJMOR-4" target="ywd59SVErPVPnXJvX7KZ-16">
          <mxGeometry relative="1" as="geometry" />
        </mxCell>
        <mxCell id="4miW7F7eIJiw02eHJMOR-4" value="Tabla actualizada" style="rounded=1;whiteSpace=wrap;html=1;" vertex="1" parent="1">
          <mxGeometry x="1115" y="346.87" width="100" height="43.75" as="geometry" />
        </mxCell>
      </root>
    </mxGraphModel>
  </diagram>
</mxfile>
